# xmcd CD database file
#
# Track frame offsets:
#	150
#	19686
#	33675
#	54910
#	71246
#	84724
#	100948
#	121039
#	139768
#	155012
#	167522
#	179239
#
# Disc length: 2674 seconds
#
# Revision: 3
# Processed by: cddbd v1.5.2PL0 Copyright (c) Steve Scherf et al.
# Submitted via: CDex 1.70beta2
#
DISCID=a40a700c
DTITLE=Michal Tucny - Medicinman
DYEAR=1991
DGENRE=Country
TTITLE0=Medicinman
TTITLE1=Je mi to lito (Heartbreak Hotel)
TTITLE2=Tennessee Road
TTITLE3=Starej harmonikar
TTITLE4=Ja ozenil se s kytarou
TTITLE5=Kazdej svou karu tahne zas dal (All the soft places to fall)
TTITLE6=Kaw-Liga
TTITLE7=Odval ten kamen
TTITLE8=Prazdny nadrazi
TTITLE9=V ulickach mesta Bakersfield (Streets of Bakersfield)
TTITLE10=Nech si ty svy city (Kansas City)
TTITLE11=To je ten posledni­ song (The Last Cowboy Song)
EXTD=YEAR: 1991
EXTT0=
EXTT1=
EXTT2=
EXTT3=
EXTT4=
EXTT5=
EXTT6=
EXTT7=
EXTT8=
EXTT9=
EXTT10=
EXTT11=
PLAYORDER=
